<svg xmlns="http://www.w3.org/2000/svg" id="Layer_1" x="0" y="0" version="1.1" viewBox="0 0 1024 1024"
	xml:space="preserve">
	<style>
		.st0 {
			fill: #fff
		}
	</style>
	<path id="path8860-5-4-8-2-7-1-8_17_" d="M586.4 512a74.3 74.3 0 11-148.6 0 74.3 74.3 0 11148.6 0z" class="st0" />
	<path id="path8862-5-5-9-1-9-2-7_17_"
		d="M842 321.5a380.5 380.5 0 00-58.4-76.3l-85.9 49.6a286 286 0 00-89.7-52 353.3 353.3 0 00-69.4 99.1c95.7-6.5 194.4 28.1 286.1 99.8l54.1-31.2a383.2 383.2 0 00-36.8-89z"
		class="st0" />
	<path id="path8866-7-5-5-0-3-5-6_17_"
		d="M512 893c32.2-.1 64.2-4.3 95.3-12.4v-99.2a288.2 288.2 0 0089.9-51.7A352.6 352.6 0 00646.1 620C604 706.1 524.6 774.3 416.7 817.9v62.4A379 379 0 00512 893z"
		class="st0" />
	<path id="path8870-5-3-9-3-0-0-9_17_"
		d="M182.1 321.5a380.6 380.6 0 00-36.9 88.7l85.9 49.6a286.9 286.9 0 00-.2 103.7 353.8 353.8 0 00120.5 10.6c-53.5-79.6-72.9-182.4-56.7-297.7l-54.1-31.2a383.8 383.8 0 00-58.5 76.3z"
		class="st0" />
	<g>
		<path id="path8864-4-8-1-2-7-3-1_17_"
			d="M842 702.5c16-27.9 28.4-57.7 36.9-88.7L793 564.1c6.4-34.6 6.4-69.8.2-103.7a353.8 353.8 0 00-120.5-10.6c53.5 79.6 72.9 182.4 56.7 297.7l54.1 31.2a380.3 380.3 0 0058.5-76.2z"
			class="st0" />
		<path id="path8868-6-7-4-7-5-7-1_17_"
			d="M182.1 702.5a380.5 380.5 0 0058.4 76.3l85.9-49.6a286 286 0 0089.7 52c29.3-29.7 52.6-63 69.4-99.1-95.7 6.5-194.4-28.1-286.1-99.8l-54.1 31.2c8.5 31.2 20.8 61 36.8 89z"
			class="st0" />
		<path id="path8872-6-3-2-1-4-2-1_17_"
			d="M512 131c-32.2.1-64.2 4.3-95.3 12.4v99.2a288.2 288.2 0 00-89.9 51.7A352.6 352.6 0 00377.9 404c42.2-86.1 121.6-154.3 229.5-197.9v-62.4A375.3 375.3 0 00512 131z"
			class="st0" />
	</g>
	<path
		d="M512 65.5c246.2 0 446.5 200.3 446.5 446.5S758.2 958.5 512 958.5 65.5 758.2 65.5 512 265.8 65.5 512 65.5M512 0a512 512 0 100 1024A512 512 0 00512 0z"
		class="st0" />
</svg>